<?xml version="1.0" standalone="no"?>
<!DOCTYPE svg PUBLIC "-//W3C//DTD SVG 20010904//EN"
 "http://www.w3.org/TR/2001/REC-SVG-20010904/DTD/svg10.dtd">
<svg version="1.0" xmlns="http://www.w3.org/2000/svg"
 width="1060.000000pt" height="1060.000000pt" viewBox="0 0 1060.000000 1060.000000"
 preserveAspectRatio="xMidYMid meet">
<metadata>
Created by potrace 1.14, written by Peter Selinger 2001-2017
</metadata>
<g transform="translate(0.000000,1060.000000) scale(0.100000,-0.100000)"
fill="#000000" stroke="none">
<path d="M4348 10535 c-3 -3 -18 -8 -34 -10 -16 -2 -58 -12 -94 -20 -36 -9
-74 -18 -85 -21 -31 -6 -48 -10 -166 -38 -37 -8 -78 -17 -90 -20 -13 -2 -55
-12 -94 -21 -78 -19 -99 -24 -135 -31 -14 -3 -32 -7 -40 -9 -8 -2 -15 -4 -15
-5 0 -1 -9 -3 -20 -5 -20 -2 -34 -6 -110 -24 -22 -5 -51 -12 -65 -15 -14 -2
-56 -12 -95 -21 -38 -9 -77 -18 -85 -20 -8 -2 -58 -13 -110 -25 -52 -12 -102
-23 -110 -25 -8 -2 -58 -13 -110 -25 -52 -12 -102 -23 -110 -25 -8 -2 -46 -11
-85 -20 -88 -21 -98 -23 -108 -24 -5 -1 -6 -10 -2 -20 3 -11 8 -28 10 -39 3
-17 13 -62 56 -257 5 -22 11 -49 14 -60 7 -27 15 -65 21 -94 3 -13 12 -54 20
-90 8 -36 17 -77 20 -91 3 -14 21 -95 41 -180 19 -85 37 -164 39 -175 1 -11 6
-31 9 -45 4 -14 8 -34 10 -45 4 -22 7 -33 25 -110 7 -27 14 -59 15 -70 2 -11
4 -20 5 -20 1 0 3 -9 5 -20 3 -19 8 -40 21 -95 8 -35 24 -110 30 -140 3 -14 9
-41 14 -60 5 -19 12 -50 15 -69 3 -19 8 -37 10 -41 2 -4 7 -20 10 -36 2 -16 7
-42 10 -59 3 -16 11 -48 17 -70 5 -22 12 -49 14 -60 2 -11 6 -31 9 -45 3 -14
7 -34 9 -45 2 -11 10 -40 17 -65 7 -25 12 -49 11 -53 -2 -5 3 -27 9 -50 7 -23
15 -59 19 -79 l7 -37 -46 -11 c-25 -6 -55 -12 -66 -14 -11 -2 -38 -9 -60 -14
-22 -6 -51 -13 -65 -16 -14 -2 -36 -7 -50 -10 -14 -3 -37 -8 -52 -11 -39 -7
-64 -13 -133 -30 -33 -9 -75 -18 -94 -20 -19 -3 -52 -10 -75 -16 -23 -5 -52
-12 -66 -15 -14 -3 -29 -9 -34 -14 -6 -6 10 -91 39 -217 65 -281 74 -323 81
-358 5 -30 59 -267 71 -315 3 -14 7 -32 8 -40 2 -8 10 -46 19 -85 8 -38 29
-131 46 -205 17 -74 32 -144 35 -155 3 -11 9 -40 15 -65 6 -25 13 -56 16 -70
3 -14 7 -32 9 -40 2 -8 4 -15 5 -15 1 0 3 -9 5 -20 11 -58 14 -74 24 -120 6
-27 13 -55 15 -61 3 -8 36 -4 108 12 143 33 145 33 175 39 16 3 36 8 45 11 10
3 30 7 45 10 16 2 66 14 113 25 47 11 96 22 110 24 14 2 25 4 25 5 0 1 8 3 19
5 10 2 41 9 68 15 27 7 50 11 52 9 4 -5 87 -364 91 -394 1 -11 8 -40 15 -65 7
-25 14 -56 17 -70 2 -14 16 -72 29 -130 29 -122 32 -135 40 -175 3 -16 11 -55
19 -85 8 -30 16 -66 19 -80 3 -14 15 -65 26 -115 12 -49 25 -109 30 -132 6
-24 14 -62 20 -85 5 -24 12 -54 15 -68 2 -14 14 -61 24 -105 11 -44 22 -91 25
-105 3 -14 7 -34 10 -45 2 -11 10 -42 16 -70 6 -27 14 -61 16 -75 3 -14 11
-50 19 -80 8 -30 16 -66 18 -80 4 -22 46 -206 64 -280 3 -14 8 -34 10 -45 2
-11 8 -38 14 -60 6 -22 13 -49 15 -60 2 -11 8 -40 14 -65 5 -25 12 -56 14 -70
3 -14 11 -50 19 -80 8 -30 19 -77 25 -105 6 -27 23 -99 37 -160 15 -60 28
-119 29 -130 1 -11 5 -27 8 -35 4 -8 10 -33 14 -55 4 -22 9 -47 11 -55 2 -8 6
-24 8 -35 2 -11 9 -38 15 -60 6 -22 12 -51 14 -65 2 -14 10 -54 19 -90 27
-109 55 -230 77 -330 12 -52 32 -140 45 -195 13 -55 26 -111 29 -125 3 -14 14
-63 24 -110 11 -47 32 -139 47 -205 15 -66 29 -129 32 -140 3 -11 8 -36 13
-55 7 -32 61 -270 110 -483 11 -48 22 -96 23 -105 2 -9 9 -35 15 -57 6 -22 13
-58 17 -79 3 -22 10 -45 15 -51 8 -10 326 -214 388 -250 32 -18 127 -79 132
-85 3 -3 22 -14 43 -25 21 -11 46 -27 55 -36 9 -8 24 -18 33 -21 9 -4 47 -27
83 -52 37 -25 69 -46 71 -46 2 0 50 -30 107 -66 95 -61 106 -65 143 -59 62 10
80 13 83 15 3 3 12 5 57 15 60 12 73 15 93 20 29 8 96 24 122 29 45 9 71 15
88 20 9 3 28 7 42 10 14 2 66 14 115 26 50 12 99 23 110 26 11 2 72 15 135 30
63 14 122 27 131 29 8 2 44 10 80 19 35 9 105 25 154 36 50 11 99 23 110 25
11 3 34 8 50 10 17 3 38 8 47 11 9 3 25 7 35 9 230 52 386 88 418 96 22 6 51
13 65 16 14 2 84 18 155 34 72 17 138 31 148 32 9 1 17 5 17 10 0 4 3 6 8 3 4
-2 43 4 87 15 44 11 88 20 98 21 22 3 22 19 -8 141 -23 99 -61 259 -71 305 -2
12 -14 62 -25 110 -12 48 -22 94 -24 102 -2 8 -12 53 -24 100 -11 47 -25 108
-31 135 -7 28 -14 59 -17 70 -2 11 -6 30 -8 42 -2 11 -6 30 -9 41 -7 22 -15
54 -21 87 -3 11 -9 40 -15 65 -15 58 -20 79 -26 110 -3 14 -19 81 -35 150 -16
69 -39 167 -51 218 l-22 94 -36 -6 c-19 -3 -46 -8 -60 -11 -14 -4 -36 -8 -50
-11 -14 -3 -43 -10 -65 -16 -39 -10 -54 -13 -105 -23 -28 -5 -60 -12 -90 -20
-23 -6 -26 -6 -185 -41 -66 -14 -127 -28 -135 -31 -8 -3 -19 -7 -25 -7 -8 -1
-89 -17 -105 -21 -3 -1 -18 -4 -35 -8 -16 -4 -39 -9 -50 -11 -11 -3 -83 -19
-160 -36 -77 -18 -151 -34 -165 -36 -14 -3 -78 -17 -143 -33 -65 -15 -120 -24
-123 -20 -3 5 -12 39 -20 76 -9 38 -20 86 -25 108 -5 22 -12 51 -14 65 -3 14
-12 53 -20 88 -8 34 -22 90 -30 125 -8 34 -16 73 -19 87 -2 14 -7 32 -10 40
-3 8 -7 26 -10 40 -6 35 -74 336 -89 390 -6 25 -11 48 -9 52 1 4 -3 19 -8 33
-5 14 -12 40 -15 58 -3 18 -11 50 -17 72 -5 22 -12 51 -15 65 -5 30 -60 271
-79 345 -1 6 -5 21 -8 35 -3 14 -7 34 -10 45 -10 45 -25 112 -30 135 -3 14
-12 52 -20 86 -8 34 -17 72 -20 85 -3 13 -7 33 -10 44 -2 11 -12 54 -21 95
-10 41 -24 102 -31 135 -8 33 -16 69 -18 80 -3 11 -7 29 -10 40 -6 24 -35 150
-42 185 -3 14 -10 43 -16 65 -5 22 -12 49 -13 60 -3 20 -9 46 -21 95 -3 14 -9
41 -13 60 -5 19 -27 116 -51 215 -23 99 -43 189 -45 200 -1 11 -7 40 -14 65
-15 51 -15 51 -26 105 -4 22 -10 49 -12 60 -2 11 -6 31 -9 45 -3 14 -9 39 -14
55 -5 17 -23 93 -40 170 -18 77 -41 178 -52 225 -11 47 -22 96 -24 110 -3 14
-7 33 -10 42 -3 10 -7 30 -10 45 -3 16 -12 55 -21 88 -25 97 -25 92 15 101 20
4 42 8 47 9 20 5 171 35 195 39 14 3 70 14 125 26 55 11 112 23 127 25 16 3
56 12 90 19 35 8 79 17 99 20 59 9 71 16 64 40 -3 11 -8 32 -10 46 -3 14 -9
41 -14 60 -12 42 -51 207 -57 235 -2 11 -22 97 -44 190 -22 94 -45 192 -50
218 -5 27 -12 52 -14 56 -3 4 -8 23 -11 42 -3 19 -15 70 -26 114 -12 44 -23
91 -25 105 -3 14 -7 33 -10 42 -3 9 -7 27 -10 40 -9 38 -12 53 -14 53 -1 0 -3
11 -5 25 -3 23 -16 79 -96 412 l-31 126 -44 -13 c-24 -7 -44 -11 -44 -9 0 2
-18 -3 -40 -11 -22 -8 -43 -14 -45 -14 -5 1 -84 -13 -95 -16 -3 -1 -12 -4 -20
-8 -8 -3 -49 -13 -90 -22 -41 -9 -91 -20 -110 -25 -70 -19 -252 -60 -265 -60
-8 0 -17 21 -23 53 -10 49 -13 65 -28 127 -3 14 -7 34 -9 45 -1 11 -8 38 -13
60 -6 22 -13 51 -16 65 -6 27 -29 129 -51 225 -8 33 -24 103 -35 155 -33 145
-40 173 -45 195 -3 11 -7 30 -9 43 -3 13 -7 31 -10 40 -3 9 -7 28 -10 42 -3
14 -10 48 -16 75 -6 28 -13 59 -15 70 -2 11 -11 47 -19 81 -8 34 -17 72 -20
85 -6 27 -35 156 -40 179 -3 8 -12 49 -21 90 -9 41 -18 82 -20 90 -21 84 -41
173 -50 220 -10 53 -14 68 -31 136 -9 38 -18 76 -19 84 -1 8 -9 48 -19 88 -16
64 -31 84 -48 67z"/>
</g>
</svg>
